<svg width="39" height="55" viewBox="0 0 39 55" fill="none" xmlns="http://www.w3.org/2000/svg">
<path d="M19.9553 53.791C19.7758 53.9844 19.623 54.1471 19.5 54.2771C19.377 54.1471 19.2242 53.9844 19.0447 53.791C18.525 53.2312 17.7817 52.4138 16.8892 51.3864C15.1038 49.331 12.724 46.4374 10.3453 43.0842C7.96566 39.7297 5.59357 35.9241 3.81793 32.0442C2.04008 28.1594 0.875 24.232 0.875 20.625C0.875 15.2758 2.84575 10.1527 6.34322 6.38089C9.8395 2.61039 14.573 0.5 19.5 0.5C24.427 0.5 29.1605 2.61039 32.6568 6.38089C36.1542 10.1527 38.125 15.2758 38.125 20.625C38.125 24.232 36.9599 28.1594 35.1821 32.0442C33.4064 35.9241 31.0343 39.7297 28.6547 43.0842C26.276 46.4374 23.8962 49.331 22.1108 51.3864C21.2183 52.4138 20.475 53.2312 19.9553 53.791ZM12.3717 28.257C14.2553 30.2884 16.8186 31.4375 19.5 31.4375C22.1814 31.4375 24.7447 30.2884 26.6283 28.257C28.5108 26.2269 29.5625 23.481 29.5625 20.625C29.5625 17.769 28.5108 15.0231 26.6283 12.993C24.7447 10.9616 22.1814 9.8125 19.5 9.8125C16.8186 9.8125 14.2553 10.9616 12.3717 12.993C10.4892 15.0231 9.4375 17.769 9.4375 20.625C9.4375 23.481 10.4892 26.2269 12.3717 28.257Z" fill="black" stroke="black"/>
</svg>
