<svg width="40" height="55" viewBox="0 0 40 55" fill="none" xmlns="http://www.w3.org/2000/svg">
<path d="M20 55C20 55 39.5 35.4544 39.5 20.625C39.5 15.1549 37.4455 9.90886 33.7886 6.04092C30.1316 2.17298 25.1717 0 20 0C14.8283 0 9.86838 2.17298 6.21142 6.04092C2.55446 9.90886 0.5 15.1549 0.5 20.625C0.5 35.4544 20 55 20 55ZM20 30.9375C17.4141 30.9375 14.9342 29.851 13.1057 27.917C11.2772 25.9831 10.25 23.36 10.25 20.625C10.25 17.89 11.2772 15.2669 13.1057 13.333C14.9342 11.399 17.4141 10.3125 20 10.3125C22.5859 10.3125 25.0658 11.399 26.8943 13.333C28.7228 15.2669 29.75 17.89 29.75 20.625C29.75 23.36 28.7228 25.9831 26.8943 27.917C25.0658 29.851 22.5859 30.9375 20 30.9375Z" fill="#92B5DD"/>
</svg>
