<svg width="72" height="12" viewBox="0 0 72 12" fill="none" xmlns="http://www.w3.org/2000/svg">
<g clip-path="url(#clip0_2_472)">
<path d="M2.49062 11.1172C2.22525 11.2533 1.92412 11.0147 1.97775 10.7102L2.54837 7.45829L0.126313 5.15104C-0.099875 4.93516 0.0176875 4.54054 0.320875 4.49791L3.68825 4.01941L5.18975 1.0446C5.32519 0.776475 5.69162 0.776475 5.82706 1.0446L7.32856 4.01941L10.6959 4.49791C10.9991 4.54054 11.1167 4.93516 10.8898 5.15104L8.46844 7.45829L9.03906 10.7102C9.09269 11.0147 8.79156 11.2533 8.52619 11.1172L5.50737 9.56616L2.48994 11.1172H2.49062Z" fill="black"/>
</g>
<g clip-path="url(#clip1_2_472)">
<path d="M17.4906 11.1172C17.2252 11.2533 16.9241 11.0147 16.9777 10.7102L17.5484 7.45829L15.1263 5.15104C14.9001 4.93516 15.0177 4.54054 15.3209 4.49791L18.6882 4.01941L20.1897 1.0446C20.3252 0.776475 20.6916 0.776475 20.8271 1.0446L22.3286 4.01941L25.6959 4.49791C25.9991 4.54054 26.1167 4.93516 25.8898 5.15104L23.4684 7.45829L24.0391 10.7102C24.0927 11.0147 23.7916 11.2533 23.5262 11.1172L20.5074 9.56616L17.4899 11.1172H17.4906Z" fill="black"/>
</g>
<g clip-path="url(#clip2_2_472)">
<path d="M32.4906 11.1172C32.2252 11.2533 31.9241 11.0147 31.9777 10.7102L32.5484 7.45829L30.1263 5.15104C29.9001 4.93516 30.0177 4.54054 30.3209 4.49791L33.6882 4.01941L35.1897 1.0446C35.3252 0.776475 35.6916 0.776475 35.8271 1.0446L37.3286 4.01941L40.6959 4.49791C40.9991 4.54054 41.1167 4.93516 40.8898 5.15104L38.4684 7.45829L39.0391 10.7102C39.0927 11.0147 38.7916 11.2533 38.5262 11.1172L35.5074 9.56616L32.4899 11.1172H32.4906Z" fill="#717171"/>
</g>
<g clip-path="url(#clip3_2_472)">
<path d="M47.4906 11.1172C47.2252 11.2533 46.9241 11.0147 46.9777 10.7102L47.5484 7.45829L45.1263 5.15104C44.9001 4.93516 45.0177 4.54054 45.3209 4.49791L48.6882 4.01941L50.1897 1.0446C50.3252 0.776475 50.6916 0.776475 50.8271 1.0446L52.3286 4.01941L55.6959 4.49791C55.9991 4.54054 56.1167 4.93516 55.8898 5.15104L53.4684 7.45829L54.0391 10.7102C54.0927 11.0147 53.7916 11.2533 53.5262 11.1172L50.5074 9.56616L47.4899 11.1172H47.4906Z" fill="#717171"/>
</g>
<g clip-path="url(#clip4_2_472)">
<path d="M62.4906 11.1172C62.2252 11.2533 61.9241 11.0147 61.9777 10.7102L62.5484 7.45829L60.1263 5.15104C59.9001 4.93516 60.0177 4.54054 60.3209 4.49791L63.6882 4.01941L65.1897 1.0446C65.3252 0.776475 65.6916 0.776475 65.8271 1.0446L67.3286 4.01941L70.6959 4.49791C70.9991 4.54054 71.1167 4.93516 70.8898 5.15104L68.4684 7.45829L69.0391 10.7102C69.0927 11.0147 68.7916 11.2533 68.5262 11.1172L65.5074 9.56616L62.4899 11.1172H62.4906Z" fill="#717171"/>
</g>
<defs>
<clipPath id="clip0_2_472">
<rect width="11" height="11" fill="white" transform="translate(0.00732422 0.5)"/>
</clipPath>
<clipPath id="clip1_2_472">
<rect width="11" height="11" fill="white" transform="translate(15.0073 0.5)"/>
</clipPath>
<clipPath id="clip2_2_472">
<rect width="11" height="11" fill="white" transform="translate(30.0073 0.5)"/>
</clipPath>
<clipPath id="clip3_2_472">
<rect width="11" height="11" fill="white" transform="translate(45.0073 0.5)"/>
</clipPath>
<clipPath id="clip4_2_472">
<rect width="11" height="11" fill="white" transform="translate(60.0073 0.5)"/>
</clipPath>
</defs>
</svg>
